<svg aria-hidden="true" style="width:0;height:0;position:absolute;overflow:hidden" xmlns="http://www.w3.org/2000/svg"><defs><symbol id="icon_phone-call-fill" viewBox="0 0 32 32"><path d="M28.95 21.887A7.029 7.029 0 0 1 22 28c-9.925 0-18-8.075-18-18a7.028 7.028 0 0 1 6.113-6.95 2.034 2.034 0 0 1 2.088 1.2l2.512 5.863a1.985 1.985 0 0 1-.175 1.888l-2.075 3.175a9.566 9.566 0 0 0 4.4 4.375L20 17.463a1.958 1.958 0 0 1 1.888-.163l5.863 2.5a2.043 2.043 0 0 1 1.2 2.088zM19.675 5.962a9.075 9.075 0 0 1 6.362 6.362 1 1 0 0 0 .963.75.977.977 0 0 0 .263-.037c.127-.033.246-.092.351-.171s.192-.18.257-.294a.993.993 0 0 0 .093-.759 10.99 10.99 0 0 0-7.775-7.775.992.992 0 0 0-.805.053 1 1 0 0 0 .292 1.872zm-1.038 3.863a5.042 5.042 0 0 1 3.538 3.538.995.995 0 0 0 .963.75.814.814 0 0 0 .25-.037c.128-.032.249-.089.354-.169s.194-.179.261-.293a1.001 1.001 0 0 0 .097-.763 6.98 6.98 0 0 0-4.95-4.95.994.994 0 0 0-.805.053c-.123.064-.232.153-.318.262s-.15.234-.186.368a1 1 0 0 0 .796 1.242z"/></symbol><symbol id="icon-bild" viewBox="0 0 32 32"><path d="M15.238 6.857V.762H0v27.429h17.295a8.824 8.824 0 0 1-.533-3.048h-1.524v-3.048h2.057c.231-.71.564-1.383.99-1.996v-1.051h-3.048V16h3.048v-3.048h-3.048V9.904h12.19v6.232a8.52 8.52 0 0 1 3.048 1.097V6.856zM6.095 25.143H3.047v-3.048h3.048zm0-6.095H3.047V16h3.048zm0-6.096H3.047V9.904h3.048zm0-6.095H3.047V3.809h3.048zm6.095 18.286H9.142v-3.048h3.048zm0-6.095H9.142V16h3.048zm0-6.096H9.142V9.904h3.048zm0-6.095H9.142V3.809h3.048zM21.333 16h3.048v-3.048h-3.048zm0-3.048V16h3.048v-3.048zm0 0V16h3.048v-3.048zm6.096 6.096v4.571H32v3.048h-4.571v4.571h-3.048v-4.571H19.81v-3.048h4.571v-4.571h3.048z"/></symbol><symbol id="icon-burger" viewBox="0 0 32 32"><path d="M0 26.667h32v-3.556H0v3.556zm0-8.889h32v-3.556H0v3.556zM0 5.333v3.556h32V5.333H0z"/></symbol><symbol id="icon-close" viewBox="0 0 32 32"><path d="M5.828 2.217 16 12.389l10.119-10.12a2.44 2.44 0 0 1 1.74-.765 2.639 2.639 0 0 1 2.636 2.635 2.38 2.38 0 0 1-.712 1.739l-10.251 10.12 10.251 10.251c.434.425.689 1 .712 1.608a2.639 2.639 0 0 1-2.636 2.636 2.415 2.415 0 0 1-1.818-.712l-10.04-10.172L5.855 29.755a2.418 2.418 0 0 1-1.713.737 2.635 2.635 0 0 1-2.635-2.636 2.38 2.38 0 0 1 .711-1.739l10.251-10.119L2.218 5.747c-.434-.425-.689-1-.712-1.608a2.635 2.635 0 0 1 2.635-2.635 2.433 2.433 0 0 1 1.687.712z"/></symbol><symbol id="icon-contact-phone" viewBox="0 0 32 32"><path d="M29.333 4H2.666A2.675 2.675 0 0 0-.001 6.667v18.667c0 1.467 1.2 2.667 2.667 2.667h26.667c1.467 0 2.653-1.2 2.653-2.667l.013-18.667C31.999 5.2 30.799 4 29.332 4zM10.667 8c2.213 0 4 1.787 4 4s-1.787 4-4 4-4-1.787-4-4 1.787-4 4-4zm8 16h-16v-1.333c0-2.667 5.333-4.133 8-4.133s8 1.467 8 4.133V24zm5.133-5.333h2.187L28 21.334l-2.653 2.653a10.02 10.02 0 0 1-3.64-5.32c-.24-.853-.373-1.747-.373-2.667s.133-1.813.373-2.667a9.962 9.962 0 0 1 3.64-5.32L28 10.666l-2.013 2.667H23.8c-.293.84-.467 1.733-.467 2.667s.173 1.827.467 2.667z"/></symbol><symbol id="icon-gallery-solid" viewBox="0 0 32 32"><path d="M26.791 2.667a.887.887 0 0 0-.889-.889H6.346a.887.887 0 0 0-.889.889v.889H26.79v-.889zM28.551 6.222a.887.887 0 0 0-.889-.889H4.551a.887.887 0 0 0-.889.889v.889h24.889v-.889zM28.551 8.889H3.449a1.667 1.667 0 0 0-1.671 1.671v16.213a1.667 1.667 0 0 0 1.671 1.671h25.102a1.667 1.667 0 0 0 1.671-1.671V10.56a1.667 1.667 0 0 0-1.671-1.671zM7.609 11.956a2.67 2.67 0 0 1 2.464 1.646 2.665 2.665 0 0 1-3.484 3.484 2.665 2.665 0 0 1-.865-4.35 2.662 2.662 0 0 1 1.886-.781zm19.058 12.933H5.334l6.631-6.64a.632.632 0 0 1 .888 0l3.271 3.271 4.507-4.631a.632.632 0 0 1 .889 0l5.147 5.147v2.853z"/></symbol><symbol id="icon-info" viewBox="0 0 32 32"><path d="M17.6 11.2h-3.2V8h3.2zm0 12.8h-3.2v-9.6h3.2zM16 0A16.002 16.002 0 0 0 4.686 27.314 16 16 0 1 0 16 0z"/></symbol><symbol id="icon-language" viewBox="0 0 32 32"><path d="M25.44 24.624c-.416-1.28-1.616-2.224-3.04-2.224h-1.6v-4.8a1.6 1.6 0 0 0-1.6-1.6H9.6v-3.2h3.2a1.6 1.6 0 0 0 1.6-1.6V8h3.2a3.2 3.2 0 0 0 3.2-3.2v-.656a12.778 12.778 0 0 1 7.57 15.127 12.77 12.77 0 0 1-2.93 5.353zM14.4 28.688C8.08 27.904 3.2 22.528 3.2 16c0-.992.128-1.952.336-2.864L11.2 20.8v1.6a3.2 3.2 0 0 0 3.2 3.2zM16 0A16.002 16.002 0 0 0 4.686 27.314 16 16 0 1 0 16 0z"/></symbol><symbol id="icon-location" viewBox="0 0 32 32"><path d="M16 0C9.808 0 4.8 5.008 4.8 11.2 4.8 19.6 16 32 16 32s11.2-12.4 11.2-20.8C27.2 5.008 22.192 0 16 0zm0 15.2a4.003 4.003 0 0 1-4-4 4.003 4.003 0 0 1 4-4 4.003 4.003 0 0 1 4 4 4.003 4.003 0 0 1-4 4z"/></symbol><symbol id="icon-select-multiple" viewBox="0 0 32 32"><path d="M26.667 2.667h-16A2.668 2.668 0 0 0 8 5.334v16a2.67 2.67 0 0 0 2.667 2.667h16a2.67 2.67 0 0 0 2.667-2.667v-16a2.668 2.668 0 0 0-2.667-2.667zm-9.244 16.641-4.365-4.365 1.885-1.885 2.301 2.301 5.732-6.879 2.049 1.708-7.603 9.12z"/><path d="M5.333 29.333H20v-2.667H5.333v-16H2.666v16a2.67 2.67 0 0 0 2.667 2.667z"/></symbol><symbol id="icon-clock" viewBox="0 0 32 32"><path d="M17.481 16.259v-4.704c0-.42-.142-.772-.425-1.056-.284-.283-.637-.425-1.056-.425s-.771.142-1.055.425a1.436 1.436 0 0 0-.427 1.056v4.444c0 .494.086.951.259 1.37s.432.802.778 1.148l3.148 3.148c.296.296.648.444 1.056.444s.759-.148 1.055-.444c.271-.296.407-.648.407-1.055s-.136-.748-.407-1.019l-3.333-3.333zM16 4.148c-.42 0-.771.142-1.055.425-.284.284-.427.637-.427 1.056s.142.772.427 1.056c.283.283.635.425 1.055.425s.772-.142 1.056-.425c.283-.284.425-.637.425-1.056s-.142-.772-.425-1.056A1.439 1.439 0 0 0 16 4.148zM27.852 16c0-.42-.142-.772-.427-1.056-.283-.283-.635-.425-1.055-.425s-.771.142-1.055.425c-.284.284-.427.637-.427 1.056s.142.771.427 1.055c.284.284.635.427 1.055.427s.771-.142 1.055-.427c.284-.283.427-.635.427-1.055zM16 24.889c-.42 0-.771.142-1.055.427-.284.283-.427.635-.427 1.055s.142.771.427 1.055c.283.284.635.427 1.055.427s.772-.142 1.056-.427c.283-.283.425-.635.425-1.055s-.142-.771-.425-1.055A1.436 1.436 0 0 0 16 24.889zM7.111 16c0-.42-.142-.772-.425-1.056-.284-.283-.637-.425-1.056-.425s-.772.142-1.056.425c-.283.284-.425.637-.425 1.056s.142.771.425 1.055c.284.284.637.427 1.056.427s.772-.142 1.056-.427c.283-.283.425-.635.425-1.055zM16 30.815c-2.049 0-3.975-.389-5.778-1.167-1.802-.777-3.37-1.833-4.704-3.166s-2.389-2.901-3.166-4.704C1.574 19.976 1.185 18.049 1.185 16s.389-3.975 1.167-5.778c.777-1.802 1.833-3.37 3.166-4.704s2.901-2.389 4.704-3.167C12.024 1.574 13.95 1.185 16 1.185s3.975.389 5.778 1.166c1.802.778 3.37 1.834 4.704 3.167s2.389 2.901 3.166 4.704c.778 1.802 1.167 3.728 1.167 5.778s-.389 3.975-1.167 5.778c-.777 1.802-1.833 3.37-3.166 4.704s-2.901 2.389-4.704 3.166c-1.802.778-3.728 1.167-5.778 1.167z"/></symbol><symbol id="icon-close" viewBox="0 0 32 32"><path stroke-width="2.133" d="m8.533 8.533 14.933 14.933M8.533 23.467 23.466 8.534"/></symbol><symbol id="icon-chek" viewBox="0 0 32 32"><path d="M29.651 2.859a4.557 4.557 0 0 0-3.476-.4 4.565 4.565 0 0 0-2.74 2.177l-8.487 15.273-4.857-4.857a4.58 4.58 0 0 0-5.02-1.055 4.57 4.57 0 0 0-1.444 7.519l9.143 9.143a4.567 4.567 0 0 0 3.232 1.342l.633-.046a4.565 4.565 0 0 0 3.363-2.307L31.427 9.077a4.575 4.575 0 0 0-.414-5.063 4.572 4.572 0 0 0-1.36-1.154z"/></symbol><symbol id="icon-instagram-logo-fill" viewBox="0 0 32 32"><path d="M20.895 16.087a4.98 4.98 0 0 1-5.954 4.887 4.977 4.977 0 0 1-3.63-6.792 4.989 4.989 0 0 1 4.603-3.076 5 5 0 0 1 4.982 4.982zm10.586-6.85v13.699a8.72 8.72 0 0 1-8.718 8.717H9.064a8.72 8.72 0 0 1-8.717-8.717V9.237A8.715 8.715 0 0 1 9.064.52h13.699a8.719 8.719 0 0 1 8.718 8.717zm-8.095 6.85a7.475 7.475 0 0 0-4.613-6.904 7.48 7.48 0 0 0-10.188 5.446 7.478 7.478 0 0 0 3.177 7.671 7.471 7.471 0 0 0 11.624-6.214zm2.491-8.096a1.872 1.872 0 0 0-1.153-1.726 1.87 1.87 0 0 0-2.035.405 1.867 1.867 0 1 0 3.189 1.321z"/></symbol><symbol id="icon-facebook" viewBox="0 0 32 32"><path d="M29.961.314H2.039A1.726 1.726 0 0 0 .314 2.039v27.922a1.727 1.727 0 0 0 1.725 1.725h15.027V19.529h-4.079v-4.706h4.079v-3.529a5.725 5.725 0 0 1 1.582-4.554 5.71 5.71 0 0 1 4.505-1.72 31.653 31.653 0 0 1 3.655.188v4.235h-2.494c-1.976 0-2.353.941-2.353 2.306v3.027h4.706l-.612 4.706h-4.094v12.204h8a1.734 1.734 0 0 0 1.22-.505 1.725 1.725 0 0 0 .505-1.22V2.039a1.734 1.734 0 0 0-.505-1.22 1.725 1.725 0 0 0-1.22-.505z"/></symbol><symbol id="icon-twitter" viewBox="0 0 39 32"><path d="M38.405 4.228a15.565 15.565 0 0 1-4.458 1.222 7.78 7.78 0 0 0 3.413-4.297 15.494 15.494 0 0 1-4.93 1.883 7.761 7.761 0 0 0-9.334-1.538 7.768 7.768 0 0 0-3.896 8.621A22.043 22.043 0 0 1 3.197 2.006a7.756 7.756 0 0 0-1.05 3.903A7.772 7.772 0 0 0 5.6 12.373a7.734 7.734 0 0 1-3.517-.972v.1a7.766 7.766 0 0 0 6.228 7.613 7.826 7.826 0 0 1-3.507.133 7.769 7.769 0 0 0 7.253 5.39 15.58 15.58 0 0 1-9.643 3.325 15.94 15.94 0 0 1-1.853-.108 21.956 21.956 0 0 0 11.9 3.488c14.283 0 22.092-11.83 22.092-22.09 0-.333-.008-.67-.023-1.003a15.766 15.766 0 0 0 3.872-4.017l.003-.005z"/></symbol></defs></svg>